HIERARCHY
ROOT joint_Root
{
	OFFSET 0.0 0.0 0.0
	CHANNELS 6 Xposition Yposition Zposition Zrotation Xrotation Yrotation 
	JOINT Hips
	{
		OFFSET -0.726466 93.3139 -2.00062
		CHANNELS 6 Xposition Yposition Zposition Zrotation Xrotation Yrotation 
		JOINT Spine
		{
			OFFSET 15.7357 0.0 0.0
			CHANNELS 6 Xposition Yposition Zposition Zrotation Xrotation Yrotation 
			JOINT Chest
			{
				OFFSET 8.98455 -0.406207 0.0
				CHANNELS 6 Xposition Yposition Zposition Zrotation Xrotation Yrotation 
				JOINT Neck
				{
					OFFSET 16.3773 0.0 0.0
					CHANNELS 6 Xposition Yposition Zposition Zrotation Xrotation Yrotation 
					JOINT Head
					{
						OFFSET 6.45672 0.0 0.0
						CHANNELS 6 Xposition Yposition Zposition Zrotation Xrotation Yrotation 
						End Site
						{
							OFFSET 0.0 0.0 0.0
						}
					}
				}
				JOINT Shoulder_L
				{
					OFFSET 12.9942 -0.242716 4.98039
					CHANNELS 6 Xposition Yposition Zposition Zrotation Xrotation Yrotation 
					JOINT UpperArm_L
					{
						OFFSET 5.34809 0.0 0.0
						CHANNELS 6 Xposition Yposition Zposition Zrotation Xrotation Yrotation 
						JOINT LowerArm_L
						{
							OFFSET 24.3286 1.87007e-05 0.0
							CHANNELS 6 Xposition Yposition Zposition Zrotation Xrotation Yrotation 
							JOINT Hand_L
							{
								OFFSET 22.2916 0.0 0.0
								CHANNELS 6 Xposition Yposition Zposition Zrotation Xrotation Yrotation 
								End Site
								{
									OFFSET 0.0 0.0 0.0
								}
							}
						}
					}
				}
				JOINT Shoulder_R
				{
					OFFSET 12.9945 -0.242716 -4.98039
					CHANNELS 6 Xposition Yposition Zposition Zrotation Xrotation Yrotation 
					JOINT UpperArm_R
					{
						OFFSET -5.34813 0.0 0.0
						CHANNELS 6 Xposition Yposition Zposition Zrotation Xrotation Yrotation 
						JOINT LowerArm_R
						{
							OFFSET -24.3289 0.000322201 0.0
							CHANNELS 6 Xposition Yposition Zposition Zrotation Xrotation Yrotation 
							JOINT Hand_R
							{
								OFFSET -22.2915 -0.000108084 0.0
								CHANNELS 6 Xposition Yposition Zposition Zrotation Xrotation Yrotation 
								End Site
								{
									OFFSET 0.0 0.0 0.0
								}
							}
						}
					}
				}
			}
		}
		JOINT UpperLeg_L
		{
			OFFSET -2.19248 -6.46944 0.0
			CHANNELS 6 Xposition Yposition Zposition Zrotation Xrotation Yrotation 
			JOINT LowerLeg_L
			{
				OFFSET 39.0811 0.0 -1.23785e-05
				CHANNELS 6 Xposition Yposition Zposition Zrotation Xrotation Yrotation 
				JOINT Foot_L
				{
					OFFSET 40.9854 0.0 -1.26872e-05
					CHANNELS 6 Xposition Yposition Zposition Zrotation Xrotation Yrotation 
					JOINT Toes_L
					{
						OFFSET 11.7543 0.0 0.0
						CHANNELS 6 Xposition Yposition Zposition Zrotation Xrotation Yrotation 
						End Site
						{
							OFFSET 0.0 0.0 0.0
						}
					}
				}
			}
		}
		JOINT UpperLeg_R
		{
			OFFSET -2.19251 6.46944 0.0
			CHANNELS 6 Xposition Yposition Zposition Zrotation Xrotation Yrotation 
			JOINT LowerLeg_R
			{
				OFFSET -39.0811 -0.00228153 -0.0401928
				CHANNELS 6 Xposition Yposition Zposition Zrotation Xrotation Yrotation 
				JOINT Foot_R
				{
					OFFSET -40.9854 0.0 0.0
					CHANNELS 6 Xposition Yposition Zposition Zrotation Xrotation Yrotation 
					JOINT Toes_R
					{
						OFFSET -11.7543 0.0 0.0
						CHANNELS 6 Xposition Yposition Zposition Zrotation Xrotation Yrotation 
						End Site
						{
							OFFSET 0.0 0.0 0.0
						}
					}
				}
			}
		}
	}
}
MOTION
Frames:	7
Frame Time:	0.0333333
0.000000 0.000000 0.000000 0.000000 0.000000 -0.000000 -1.988650 82.102100 432.063000 -88.459000 1.414940 174.839000 15.735700 0.000005 -0.000001 93.994400 81.241200 -92.073800 8.984550 -0.406207 -0.000000 9.692570 1.245260 3.732900 16.377300 -0.000001 -0.000001 -0.608889 -1.427340 -0.727910 6.456720 -0.000001 -0.000000 -2.695980 -1.112730 -4.209160 12.994200 -0.242716 4.980390 -88.837400 -3.131040 -69.617700 5.348090 -0.000007 -0.000001 -70.059700 38.053200 -3.013580 24.328600 0.000019 0.000005 20.786700 -0.103457 -90.275900 22.291600 -0.000001 0.000005 5.273870 5.671000 -17.549700 12.994500 -0.242716 -4.980390 88.465200 4.423920 -70.847600 -5.348130 -0.000001 -0.000004 -48.098500 37.194000 -31.482200 -24.328900 0.000322 -0.000009 -4.425550 0.903929 -101.533000 -22.291500 -0.000108 -0.000004 13.851000 5.578360 -10.129800 -2.192480 -6.469440 -0.000000 179.794000 -2.379460 -39.891100 39.081100 -0.000007 -0.000012 -0.623425 -0.196130 107.464000 40.985400 -0.000006 -0.000013 15.234000 -11.763800 -53.229400 11.754300 -0.000000 0.000003 -0.007907 -0.087284 -20.131000 -2.192510 6.469440 -0.000001 -171.353000 8.905100 166.659000 -39.081100 -0.002282 -0.040193 0.144937 -0.114284 51.111700 -40.985400 0.000008 0.000006 13.967100 -3.247550 -91.949900 -11.754300 -0.000006 -0.000006 -0.006987 -0.079549 -19.811500
0.000000 0.000000 0.000000 0.000000 0.000000 -0.000000 -2.626650 84.141600 425.211000 -90.985000 4.795900 173.403000 15.735700 0.000005 -0.000001 103.576000 81.793600 -103.175000 8.984550 -0.406207 -0.000000 8.188570 3.836960 0.526672 16.377300 -0.000001 -0.000001 -0.172457 -1.177600 -0.040825 6.456720 -0.000001 -0.000000 -1.912570 -3.388760 -2.982680 12.994200 -0.242716 4.980390 -88.543500 -3.544970 -67.650500 5.348090 -0.000007 -0.000001 -67.648300 42.086200 2.344370 24.328600 0.000019 0.000005 13.796000 -0.871448 -93.556500 22.291600 -0.000001 0.000005 6.480050 5.667880 -17.074800 12.994500 -0.242716 -4.980390 89.047800 2.936480 -72.027300 -5.348130 -0.000001 -0.000004 -49.923100 34.883800 -35.783100 -24.328900 0.000322 -0.000009 -4.315230 1.242900 -106.019000 -22.291500 -0.000108 -0.000004 13.748200 5.578170 -10.119300 -2.192480 -6.469440 -0.000000 175.745000 -2.778870 -44.498900 39.081100 -0.000007 -0.000012 -0.413892 -0.071175 99.758700 40.985400 -0.000006 -0.000013 14.274400 -13.026200 -57.865600 11.754300 -0.000000 0.000003 -0.006768 -0.077668 -19.738400 -2.192510 6.469440 -0.000001 -176.363000 7.782870 173.516000 -39.081100 -0.002282 -0.040193 0.111754 -0.117992 42.595800 -40.985400 0.000008 0.000006 14.251800 0.927279 -85.469500 -11.754300 -0.000006 -0.000006 -1.108020 -1.198110 -25.271900
0.000000 0.000000 0.000000 0.000000 0.000000 -0.000000 -3.068290 87.239200 417.966000 -92.893400 6.698430 171.935000 15.735700 0.000005 -0.000001 111.251000 82.281200 -112.165000 8.984550 -0.406207 -0.000000 6.691460 5.586310 -2.154370 16.377300 -0.000001 -0.000001 0.056856 -1.189250 0.201646 6.456720 -0.000001 -0.000000 -1.169330 -5.611220 -1.139810 12.994200 -0.242716 4.980390 -87.918800 -4.699760 -66.083600 5.348090 -0.000007 -0.000001 -67.405600 44.494300 7.738790 24.328600 0.000019 0.000005 10.782000 -1.332260 -96.963100 22.291600 -0.000001 0.000005 5.729660 5.662810 -16.367400 12.994500 -0.242716 -4.980390 89.467800 1.708050 -72.693300 -5.348130 -0.000001 -0.000004 -52.812300 34.530300 -36.518300 -24.328900 0.000322 -0.000009 -7.746240 2.819920 -109.872000 -22.291500 -0.000108 -0.000004 14.440500 5.574090 -9.900550 -2.192480 -6.469440 -0.000000 173.003000 -2.434740 -45.644100 39.081100 -0.000007 -0.000012 -0.222726 0.016970 85.645100 40.985400 -0.000006 -0.000013 12.293600 -13.400900 -61.396600 11.754300 -0.000000 0.000003 -0.007188 -0.081280 -19.885800 -2.192510 6.469440 -0.000001 179.916000 6.940830 179.332000 -39.081100 -0.002282 -0.040193 0.065099 -0.092900 33.635200 -40.985400 0.000008 0.000006 14.059900 4.914540 -71.497600 -11.754300 -0.000006 -0.000006 -0.110373 -0.469594 -36.226000
0.000000 0.000000 0.000000 0.000000 0.000000 -0.000000 -3.329520 90.379700 410.843000 -93.337800 7.649720 170.189000 15.735700 0.000005 -0.000001 116.939000 82.779900 -118.545000 8.984550 -0.406207 -0.000000 5.228550 6.563810 -3.510270 16.377300 -0.000001 -0.000001 -0.123817 -1.320820 -0.037969 6.456720 -0.000001 -0.000000 -0.792212 -6.936960 0.005242 12.994200 -0.242716 4.980390 -87.176900 -6.147590 -65.276200 5.348090 -0.000007 -0.000001 -69.715400 44.574600 13.598200 24.328600 0.000019 0.000005 9.951630 -1.681040 -99.494800 22.291600 -0.000001 0.000005 4.933120 5.654950 -15.504300 12.994500 -0.242716 -4.980390 89.848300 0.489343 -72.777200 -5.348130 -0.000001 -0.000004 -55.378200 35.547600 -36.034200 -24.328900 0.000322 -0.000009 -8.122140 3.372760 -112.406000 -22.291500 -0.000108 -0.000004 13.245600 5.564920 -9.427800 -2.192480 -6.469440 -0.000000 172.174000 -2.203530 -43.921600 39.081100 -0.000007 -0.000012 -0.084241 0.036421 66.622500 40.985400 -0.000006 -0.000013 10.102400 -11.954600 -64.428200 11.754300 -0.000000 0.000003 -0.006216 -0.072797 -19.539700 -2.192510 6.469440 -0.000001 177.007000 10.501200 -177.938000 -39.081100 -0.002282 -0.040193 0.032956 -0.056404 27.729400 -40.985400 0.000008 0.000006 11.981700 12.334600 -53.553400 -11.754300 -0.000006 -0.000006 -0.254978 -0.729463 -48.305600
0.000000 0.000000 0.000000 0.000000 0.000000 -0.000000 -3.208740 92.563600 403.522000 -91.589100 7.659710 170.139000 15.735700 0.000005 -0.000001 118.134000 82.726200 -119.549000 8.984550 -0.406207 -0.000000 5.178910 6.877410 -3.139720 16.377300 -0.000001 -0.000001 -0.586675 -1.275290 -0.509898 6.456720 -0.000001 -0.000000 -1.111410 -7.408740 0.455976 12.994200 -0.242716 4.980390 -86.437000 -7.773700 -65.280300 5.348090 -0.000007 -0.000001 -73.067100 42.664300 18.883900 24.328600 0.000019 0.000005 7.607820 -1.508600 -101.153000 22.291600 -0.000001 0.000005 4.770700 5.642860 -14.374100 12.994500 -0.242716 -4.980390 90.194000 -0.635904 -73.033200 -5.348130 -0.000001 -0.000004 -57.829700 37.015500 -34.662700 -24.328900 0.000322 -0.000009 -5.992950 2.634200 -113.644000 -22.291500 -0.000108 -0.000004 11.143800 5.546830 -8.549610 -2.192480 -6.469440 -0.000000 173.993000 -2.717560 -37.704600 39.081100 -0.000007 -0.000012 -0.006862 0.006915 44.791200 40.985400 -0.000006 -0.000013 7.475830 -7.546010 -66.932900 11.754300 -0.000000 0.000003 -0.005780 -0.068836 -19.378100 -2.192510 6.469440 -0.000001 175.562000 14.679800 -174.994000 -39.081100 -0.002282 -0.040193 0.051954 -0.104739 24.910800 -40.985400 0.000008 0.000006 5.004840 18.996700 -37.193900 -11.754300 -0.000006 -0.000006 -0.161926 -0.577758 -41.085300
0.000000 0.000000 0.000000 0.000000 0.000000 -0.000000 -2.715600 93.090200 395.737000 -88.813700 7.727210 170.839000 15.735700 0.000005 -0.000001 119.018000 82.421400 -119.826000 8.984550 -0.406207 -0.000000 5.577000 7.350700 -1.974610 16.377300 -0.000001 -0.000001 -1.180470 -1.234130 -0.950694 6.456720 -0.000001 -0.000000 -1.395530 -7.524440 0.396444 12.994200 -0.242716 4.980390 -85.688900 -9.725810 -65.950200 5.348090 -0.000007 -0.000001 -76.152900 40.187900 22.629000 24.328600 0.000019 0.000005 6.097090 -1.328380 -102.246000 22.291600 -0.000001 0.000005 4.694880 5.627990 -13.185600 12.994500 -0.242716 -4.980390 90.585600 -1.920400 -73.039800 -5.348130 -0.000001 -0.000004 -60.046400 39.064300 -32.372600 -24.328900 0.000322 -0.000009 -5.240960 2.261330 -113.278000 -22.291500 -0.000108 -0.000004 10.443600 5.531910 -7.879970 -2.192480 -6.469440 -0.000000 176.921000 -3.997580 -30.818200 39.081100 -0.000007 -0.000012 0.005251 -0.010635 26.274700 40.985400 -0.000006 -0.000013 3.297330 -3.190330 -67.512200 11.754300 -0.000000 0.000003 -0.005499 -0.066220 -19.271500 -2.192510 6.469440 -0.000001 176.531000 13.169200 -172.586000 -39.081100 -0.002282 -0.040193 0.079226 -0.154116 26.224400 -40.985400 0.000008 0.000006 -2.688080 14.786700 -28.526100 -11.754300 -0.000006 -0.000006 -0.030862 -0.221387 -25.644900
0.000000 0.000000 0.000000 0.000000 0.000000 -0.000000 -2.250980 92.427600 387.883000 -86.754300 7.753320 170.883000 15.735700 0.000005 -0.000001 119.058000 82.515700 -119.437000 8.984550 -0.406207 -0.000000 5.376840 7.261790 -1.101060 16.377300 -0.000001 -0.000001 -1.642540 -0.879329 -1.142360 6.456720 -0.000001 -0.000000 -1.650270 -7.209610 0.227378 12.994200 -0.242716 4.980390 -85.307300 -10.752500 -66.251100 5.348090 -0.000007 -0.000001 -77.120600 38.245700 23.915500 24.328600 0.000019 0.000005 5.977350 -1.369660 -102.860000 22.291600 -0.000001 0.000005 4.087050 5.612260 -12.101800 12.994500 -0.242716 -4.980390 90.749800 -2.448370 -72.966900 -5.348130 -0.000001 -0.000004 -61.411700 41.389300 -28.997200 -24.328900 0.000322 -0.000009 -6.038690 2.344620 -111.143000 -22.291500 -0.000108 -0.000004 10.694100 5.534410 -7.992140 -2.192480 -6.469440 -0.000000 178.131000 -5.226970 -28.574900 39.081100 -0.000007 -0.000012 0.071577 -0.201896 19.520700 40.985400 -0.000006 -0.000013 4.243800 -4.233420 -67.726000 11.754300 -0.000000 0.000003 -0.005502 -0.066247 -19.272600 -2.192510 6.469440 -0.000001 178.946000 9.179660 -172.781000 -39.081100 -0.002282 -0.040193 0.075143 -0.109430 33.287600 -40.985400 0.000008 0.000006 -1.087720 5.185790 -32.291200 -11.754300 -0.000006 -0.000006 -0.031694 -0.225124 -25.800100
